<?xml version="1.0" encoding="UTF-8" standalone="no"?>
<!-- Created with Inkscape (http://www.inkscape.org/) -->

<svg
   xmlns:dc="http://purl.org/dc/elements/1.1/"
   xmlns:cc="http://creativecommons.org/ns#"
   xmlns:rdf="http://www.w3.org/1999/02/22-rdf-syntax-ns#"
   xmlns:svg="http://www.w3.org/2000/svg"
   xmlns="http://www.w3.org/2000/svg"
   xmlns:sodipodi="http://sodipodi.sourceforge.net/DTD/sodipodi-0.dtd"
   xmlns:inkscape="http://www.inkscape.org/namespaces/inkscape"
   width="46.673908mm"
   height="46.673908mm"
   viewBox="0 0 46.673908 46.67391"
   version="1.1"
   id="svg8"
   inkscape:version="0.92.5 (2060ec1f9f, 2020-04-08)"
   sodipodi:docname="bulbo.svg"
   inkscape:export-filename="/home/ulisses/Downloads/icons/semente.png"
   inkscape:export-xdpi="52.243324"
   inkscape:export-ydpi="52.243324">
  <defs
     id="defs2">
    <inkscape:perspective
       sodipodi:type="inkscape:persp3d"
       inkscape:vp_x="0 : 148.49999 : 1"
       inkscape:vp_y="0 : 999.99993 : 0"
       inkscape:vp_z="210 : 148.5 : 1"
       inkscape:persp3d-origin="105 : 98.999994 : 1"
       id="perspective1356" />
  </defs>
  <sodipodi:namedview
     id="base"
     pagecolor="#ffffff"
     bordercolor="#666666"
     borderopacity="1.0"
     inkscape:pageopacity="0.0"
     inkscape:pageshadow="2"
     inkscape:zoom="1.979899"
     inkscape:cx="90.055875"
     inkscape:cy="66.807591"
     inkscape:document-units="mm"
     inkscape:current-layer="layer1"
     showgrid="false"
     inkscape:window-width="1366"
     inkscape:window-height="731"
     inkscape:window-x="0"
     inkscape:window-y="0"
     inkscape:window-maximized="1"
     showguides="true"
     inkscape:guide-bbox="true"
     fit-margin-top="0"
     fit-margin-left="0"
     fit-margin-right="0"
     fit-margin-bottom="0" />
  <metadata
     id="metadata5">
    <rdf:RDF>
      <cc:Work
         rdf:about="">
        <dc:format>image/svg+xml</dc:format>
        <dc:type
           rdf:resource="http://purl.org/dc/dcmitype/StillImage" />
        <dc:title />
      </cc:Work>
    </rdf:RDF>
  </metadata>
  <g
     inkscape:label="Camada 1"
     inkscape:groupmode="layer"
     id="layer1"
     transform="translate(-15.548634,-192.03931)">
    <g
       id="g1345"
       transform="matrix(0.9146469,0,0,0.9146469,-233.79256,107.31054)"
       style="stroke:none">
      <g
         id="g1350"
         transform="matrix(1.0950473,0,0,1.0950473,-26.421766,-13.654963)"
         style="stroke:none">
        <path
           style="fill:#000000;fill-opacity:1;stroke:none;stroke-width:0.23887402px;stroke-linecap:butt;stroke-linejoin:miter;stroke-opacity:1"
           d="m 296.01798,107.88622 c 0,0 -3.83689,0.19223 -5.24667,2.48996 -1.40979,2.29773 -2.57206,3.0894 -5.07862,4.59189 -9.86614,5.914 -8.88648,17.11824 -3.97935,22.21627 3.59838,3.73837 9.12104,6.43841 14.59872,6.35946 5.39195,-0.0777 11.55959,-2.62562 14.84584,-6.42762 6.09218,-7.04828 3.88898,-17.60752 -4.10787,-21.8661 -2.28437,-1.2165 -4.63702,-3.11555 -5.63195,-5.4739 -3.73332,-5.47544 -2.69205,-4.98384 -5.4001,-1.88996 z"
           id="path1295"
           inkscape:connector-curvature="0"
           sodipodi:nodetypes="czssssscc" />
        <path
           sodipodi:nodetypes="csccc"
           inkscape:connector-curvature="0"
           id="path1110-8-0-5-9"
           d="m 287.93535,101.17965 c 0,0 3.82236,6.80522 3.07279,8.69842 -2.4348,6.1496 2.37682,6.80557 3.82817,5.36521 0,0 5.64029,-4.26696 2.37422,-2.15124 -1.17577,-5.95958 3.16087,-7.61583 -9.27518,-11.91239"
           style="fill:#000000;fill-opacity:1;stroke:none;stroke-width:0.34273493;stroke-linecap:round;stroke-linejoin:miter;stroke-miterlimit:4;stroke-dasharray:none;stroke-opacity:1" />
        <path
           sodipodi:nodetypes="ccccc"
           inkscape:connector-curvature="0"
           id="path1110-8-0-5-9-2"
           d="m 302.59127,97.201483 c -11.22896,2.481298 -10.70988,12.137747 -10.93247,15.848387 4.78394,-1.3847 11.85978,4.64934 10.87286,0.3178 -0.31664,-1.2764 -1.44463,-3.78825 -1.70834,-5.82988 -0.26372,-2.04163 1.68018,-10.295347 1.76795,-10.336307"
           style="fill:#000000;fill-opacity:1;stroke:none;stroke-width:0.27186364;stroke-linecap:round;stroke-linejoin:miter;stroke-miterlimit:4;stroke-dasharray:none;stroke-opacity:1" />
      </g>
    </g>
  </g>
  <g
     inkscape:groupmode="layer"
     id="layer2"
     inkscape:label="Camada 2"
     transform="translate(-15.548634,-192.03931)" />
</svg>
