<?xml version="1.0" encoding="UTF-8" standalone="no"?>
<!-- Created with Inkscape (http://www.inkscape.org/) -->

<svg
   xmlns:dc="http://purl.org/dc/elements/1.1/"
   xmlns:cc="http://creativecommons.org/ns#"
   xmlns:rdf="http://www.w3.org/1999/02/22-rdf-syntax-ns#"
   xmlns:svg="http://www.w3.org/2000/svg"
   xmlns="http://www.w3.org/2000/svg"
   xmlns:sodipodi="http://sodipodi.sourceforge.net/DTD/sodipodi-0.dtd"
   xmlns:inkscape="http://www.inkscape.org/namespaces/inkscape"
   width="46.673908mm"
   height="46.673908mm"
   viewBox="0 0 46.673908 46.67391"
   version="1.1"
   id="svg8"
   inkscape:version="0.92.5 (2060ec1f9f, 2020-04-08)"
   sodipodi:docname="ramo.svg"
   inkscape:export-filename="/home/ulisses/Downloads/icons/semente.png"
   inkscape:export-xdpi="52.243324"
   inkscape:export-ydpi="52.243324">
  <defs
     id="defs2">
    <inkscape:perspective
       sodipodi:type="inkscape:persp3d"
       inkscape:vp_x="0 : 148.49999 : 1"
       inkscape:vp_y="0 : 999.99993 : 0"
       inkscape:vp_z="210 : 148.5 : 1"
       inkscape:persp3d-origin="105 : 98.999994 : 1"
       id="perspective1356" />
  </defs>
  <sodipodi:namedview
     id="base"
     pagecolor="#ffffff"
     bordercolor="#666666"
     borderopacity="1.0"
     inkscape:pageopacity="0.0"
     inkscape:pageshadow="2"
     inkscape:zoom="0.49497476"
     inkscape:cx="237.84484"
     inkscape:cy="114.88508"
     inkscape:document-units="mm"
     inkscape:current-layer="layer1"
     showgrid="false"
     inkscape:window-width="1366"
     inkscape:window-height="731"
     inkscape:window-x="0"
     inkscape:window-y="0"
     inkscape:window-maximized="1"
     showguides="true"
     inkscape:guide-bbox="true"
     fit-margin-top="0"
     fit-margin-left="0"
     fit-margin-right="0"
     fit-margin-bottom="0" />
  <metadata
     id="metadata5">
    <rdf:RDF>
      <cc:Work
         rdf:about="">
        <dc:format>image/svg+xml</dc:format>
        <dc:type
           rdf:resource="http://purl.org/dc/dcmitype/StillImage" />
        <dc:title></dc:title>
      </cc:Work>
    </rdf:RDF>
  </metadata>
  <g
     inkscape:label="Camada 1"
     inkscape:groupmode="layer"
     id="layer1"
     transform="translate(-15.548634,-192.03931)">
    <g
       id="g1419"
       transform="matrix(1.0102478,0,0,1.0102478,-49.202933,-24.624706)">
      <g
         transform="matrix(0.85199625,0,0,0.85199625,-28.318761,167.36672)"
         id="g1287">
        <g
           id="g1425"
           transform="matrix(1.0063673,0,0,1.0063673,-97.388287,-37.745946)">
          <path
             sodipodi:nodetypes="aacsscsccssa"
             inkscape:connector-curvature="0"
             id="path1206"
             d="m 255.61717,136.54595 c 0.49709,2.36061 -0.55985,6.00244 -2.70647,7.64618 -3.53259,2.70503 -10.13062,2.49168 -13.30899,1.01875 -9.99879,-9.73721 -12.98809,-20.10036 -12.98809,-20.10036 -1.58071,-2.86196 -2.49315,-1.75935 -3.83839,-2.47025 -3.00409,-1.58753 -9.64155,-2.46404 -9.3868,-3.97387 2.64908,0.055 1.97414,-3.64997 4.37143,-3.38333 1.79832,0.20002 4.10847,-0.0711 8.82141,2.61896 -0.22922,-4.3289 1.59309,-11.28195 3.86539,-14.5871 1.63538,0.84799 5.02996,2.77439 3.97958,4.47058 -2.20661,3.56331 -1.6992,7.97814 -0.0771,11.42317 3.8963,8.27499 21.26803,17.33727 21.26803,17.33727 z"
             style="fill:#000000;stroke:#000000;stroke-width:0;stroke-linecap:butt;stroke-linejoin:miter;stroke-miterlimit:4;stroke-dasharray:none;stroke-opacity:1" />
          <path
             sodipodi:nodetypes="cac"
             inkscape:connector-curvature="0"
             id="path1110-8-0"
             d="m 257.35717,103.71857 c -18.59791,16.21712 -24.67436,0.94558 -24.67436,0.94558 0,0 6.51104,-15.988755 24.67436,-0.94558"
             style="fill:#000000;fill-opacity:1;stroke:#000000;stroke-width:0;stroke-linecap:butt;stroke-linejoin:miter;stroke-miterlimit:4;stroke-dasharray:none;stroke-opacity:1" />
          <path
             sodipodi:nodetypes="cac"
             inkscape:connector-curvature="0"
             id="path1110-8-0-3"
             d="m 205.63159,125.55722 c 11.49107,-19.09869 20.94968,-7.65519 20.94968,-7.65519 0,0 -1.1636,15.55065 -20.94968,7.65519"
             style="fill:#000000;fill-opacity:1;stroke:#000000;stroke-width:0;stroke-linecap:butt;stroke-linejoin:miter;stroke-miterlimit:4;stroke-dasharray:none;stroke-opacity:1" />
          <path
             sodipodi:nodetypes="cac"
             inkscape:connector-curvature="0"
             id="path1110-8-0-5"
             d="m 212.35197,93.063187 c 23.0918,-3.733379 20.33084,11.600963 20.33084,11.600963 0,0 -13.25028,9.60516 -20.33084,-11.600963"
             style="fill:#000000;fill-opacity:1;stroke:#000000;stroke-width:0;stroke-linecap:butt;stroke-linejoin:miter;stroke-miterlimit:4;stroke-dasharray:none;stroke-opacity:1" />
        </g>
      </g>
    </g>
  </g>
  <g
     inkscape:groupmode="layer"
     id="layer2"
     inkscape:label="Camada 2"
     transform="translate(-15.548634,-192.03931)" />
</svg>
