<?xml version="1.0" encoding="UTF-8" standalone="no"?>
<!-- Created with Inkscape (http://www.inkscape.org/) -->

<svg
   xmlns:dc="http://purl.org/dc/elements/1.1/"
   xmlns:cc="http://creativecommons.org/ns#"
   xmlns:rdf="http://www.w3.org/1999/02/22-rdf-syntax-ns#"
   xmlns:svg="http://www.w3.org/2000/svg"
   xmlns="http://www.w3.org/2000/svg"
   xmlns:sodipodi="http://sodipodi.sourceforge.net/DTD/sodipodi-0.dtd"
   xmlns:inkscape="http://www.inkscape.org/namespaces/inkscape"
   width="46.673908mm"
   height="46.673908mm"
   viewBox="0 0 46.673908 46.67391"
   version="1.1"
   id="svg8"
   inkscape:version="0.92.5 (2060ec1f9f, 2020-04-08)"
   sodipodi:docname="format.svg"
   inkscape:export-filename="/home/ulisses/Downloads/icons/semente.png"
   inkscape:export-xdpi="52.243324"
   inkscape:export-ydpi="52.243324">
  <defs
     id="defs2">
    <inkscape:perspective
       sodipodi:type="inkscape:persp3d"
       inkscape:vp_x="0 : 148.49999 : 1"
       inkscape:vp_y="0 : 999.99993 : 0"
       inkscape:vp_z="210 : 148.5 : 1"
       inkscape:persp3d-origin="105 : 98.999994 : 1"
       id="perspective1356" />
  </defs>
  <sodipodi:namedview
     id="base"
     pagecolor="#ffffff"
     bordercolor="#666666"
     borderopacity="1.0"
     inkscape:pageopacity="0.0"
     inkscape:pageshadow="2"
     inkscape:zoom="0.70000002"
     inkscape:cx="183.86887"
     inkscape:cy="-251.94054"
     inkscape:document-units="mm"
     inkscape:current-layer="layer1"
     showgrid="false"
     inkscape:window-width="1366"
     inkscape:window-height="731"
     inkscape:window-x="0"
     inkscape:window-y="0"
     inkscape:window-maximized="1"
     showguides="true"
     inkscape:guide-bbox="true"
     fit-margin-top="0"
     fit-margin-left="0"
     fit-margin-right="0"
     fit-margin-bottom="0" />
  <metadata
     id="metadata5">
    <rdf:RDF>
      <cc:Work
         rdf:about="">
        <dc:format>image/svg+xml</dc:format>
        <dc:type
           rdf:resource="http://purl.org/dc/dcmitype/StillImage" />
        <dc:title></dc:title>
      </cc:Work>
    </rdf:RDF>
  </metadata>
  <g
     inkscape:label="Camada 1"
     inkscape:groupmode="layer"
     id="layer1"
     transform="translate(-15.548634,-192.03931)">
    <path
       style="fill:#000000;stroke:#000000;stroke-width:0.17606597px;stroke-linecap:butt;stroke-linejoin:miter;stroke-opacity:1"
       d="m 27.372177,194.50855 c -7.6725,2.4835 -6.87125,16.29196 -5.02722,23.66524 8.23344,32.92077 37.65173,14.30026 34.01404,2.55806 -1.36183,-7.00892 -16.59061,-30.23585 -28.98682,-26.2233 z"
       id="path1100"
       inkscape:connector-curvature="0"
       sodipodi:nodetypes="asca" />
    <g
       id="g1383"
       transform="matrix(1.0857624,0,0,1.0857624,51.270822,182.64247)">
      <g
         id="g1457">
        <g
           transform="translate(-54.483521,29.681777)"
           id="g1429">
          <path
             sodipodi:nodetypes="cac"
             inkscape:connector-curvature="0"
             id="path1110"
             d="m 58.068952,128.81971 c 16.15937,14.09076 21.43907,0.82162 21.43907,0.82162 0,0 -5.657302,-13.89232 -21.43907,-0.82162"
             style="fill:#000000;fill-opacity:1;stroke:#000000;stroke-width:0;stroke-linecap:butt;stroke-linejoin:miter;stroke-miterlimit:4;stroke-dasharray:none;stroke-opacity:1" />
          <path
             sodipodi:nodetypes="cac"
             inkscape:connector-curvature="0"
             id="path1110-8"
             d="m 100.94708,128.81971 c -16.159358,14.09076 -21.439058,0.82162 -21.439058,0.82162 0,0 5.6573,-13.89232 21.439058,-0.82162"
             style="fill:#000000;fill-opacity:1;stroke:#000000;stroke-width:0;stroke-linecap:butt;stroke-linejoin:miter;stroke-miterlimit:4;stroke-dasharray:none;stroke-opacity:1" />
        </g>
        <path
           style="fill:#000000;fill-opacity:1;stroke:#000000;stroke-width:0.33494961;stroke-linecap:butt;stroke-linejoin:miter;stroke-miterlimit:4;stroke-dasharray:none;stroke-opacity:1"
           d="m 13.391646,175.26892 c -0.76601,9.60687 25.42723,9.94121 22.66193,-0.63301 -2.08771,-7.98312 -22.05983,-6.9183 -22.66193,0.63301 z"
           id="path1127"
           inkscape:connector-curvature="0"
           sodipodi:nodetypes="sss" />
        <path
           style="fill:#000000;fill-opacity:1;stroke:#000000;stroke-width:0;stroke-linecap:butt;stroke-linejoin:miter;stroke-miterlimit:4;stroke-dasharray:none;stroke-opacity:1"
           d="m 26.926247,161.14716 -1.901746,-1.82406 -1.901745,1.82406 c 0,0 -0.951584,4.22462 -1.923504,8.10202 2.338316,2.19212 8.299877,5.06025 7.628741,0 -0.85332,-3.85776 -1.901746,-8.10198 -1.901746,-8.10198 z"
           id="path1140"
           inkscape:connector-curvature="0"
           sodipodi:nodetypes="ccccccc" />
        <g
           id="g1149"
           style="fill:#000000"
           transform="matrix(0.66989924,0,0,0.66989924,-83.712844,93.796427)">
          <g
             style="fill:#000000;fill-opacity:1;stroke-width:0.5;stroke-miterlimit:4;stroke-dasharray:none"
             id="g1138">
            <g
               id="g1354">
              <path
                 sodipodi:nodetypes="cccc"
                 inkscape:connector-curvature="0"
                 id="path1129"
                 d="m 178.50215,145.33132 0.56843,-22.85832 -34.11671,-0.85395 0.75595,23.487"
                 style="fill:#000000;fill-opacity:1;stroke:#000000;stroke-width:0.5;stroke-linecap:butt;stroke-linejoin:miter;stroke-miterlimit:4;stroke-dasharray:none;stroke-opacity:1" />
              <path
                 sodipodi:nodetypes="cssc"
                 inkscape:connector-curvature="0"
                 id="path1133"
                 d="m 162.35111,141.02907 c 0.12107,0.27837 -16.85972,3.80841 -16.68318,4.04947 8.97576,12.25587 29.90036,6.10124 32.76207,0.19443 0.26341,-0.54369 -16.42048,-3.78583 -16.07889,-4.2439"
                 style="fill:#000000;fill-opacity:1;stroke:#000000;stroke-width:0.5;stroke-linecap:butt;stroke-linejoin:miter;stroke-miterlimit:4;stroke-dasharray:none;stroke-opacity:1" />
            </g>
          </g>
        </g>
      </g>
    </g>
    <g
       id="g1419"
       transform="matrix(1.0102478,0,0,1.0102478,-133.6601,69.988704)">
      <g
         transform="matrix(0.85199625,0,0,0.85199625,-28.318761,167.36672)"
         id="g1287">
        <g
           id="g1425"
           transform="matrix(1.0063673,0,0,1.0063673,-97.388287,-37.745946)">
          <path
             sodipodi:nodetypes="aacsscsccssa"
             inkscape:connector-curvature="0"
             id="path1206"
             d="m 255.61717,136.54595 c 0.49709,2.36061 -0.55985,6.00244 -2.70647,7.64618 -3.53259,2.70503 -10.13062,2.49168 -13.30899,1.01875 -9.99879,-9.73721 -12.98809,-20.10036 -12.98809,-20.10036 -1.58071,-2.86196 -2.49315,-1.75935 -3.83839,-2.47025 -3.00409,-1.58753 -9.64155,-2.46404 -9.3868,-3.97387 2.64908,0.055 1.97414,-3.64997 4.37143,-3.38333 1.79832,0.20002 4.10847,-0.0711 8.82141,2.61896 -0.22922,-4.3289 1.59309,-11.28195 3.86539,-14.5871 1.63538,0.84799 5.02996,2.77439 3.97958,4.47058 -2.20661,3.56331 -1.6992,7.97814 -0.0771,11.42317 3.8963,8.27499 21.26803,17.33727 21.26803,17.33727 z"
             style="fill:#000000;stroke:#000000;stroke-width:0;stroke-linecap:butt;stroke-linejoin:miter;stroke-miterlimit:4;stroke-dasharray:none;stroke-opacity:1" />
          <path
             sodipodi:nodetypes="cac"
             inkscape:connector-curvature="0"
             id="path1110-8-0"
             d="m 257.35717,103.71857 c -18.59791,16.21712 -24.67436,0.94558 -24.67436,0.94558 0,0 6.51104,-15.988755 24.67436,-0.94558"
             style="fill:#000000;fill-opacity:1;stroke:#000000;stroke-width:0;stroke-linecap:butt;stroke-linejoin:miter;stroke-miterlimit:4;stroke-dasharray:none;stroke-opacity:1" />
          <path
             sodipodi:nodetypes="cac"
             inkscape:connector-curvature="0"
             id="path1110-8-0-3"
             d="m 205.63159,125.55722 c 11.49107,-19.09869 20.94968,-7.65519 20.94968,-7.65519 0,0 -1.1636,15.55065 -20.94968,7.65519"
             style="fill:#000000;fill-opacity:1;stroke:#000000;stroke-width:0;stroke-linecap:butt;stroke-linejoin:miter;stroke-miterlimit:4;stroke-dasharray:none;stroke-opacity:1" />
          <path
             sodipodi:nodetypes="cac"
             inkscape:connector-curvature="0"
             id="path1110-8-0-5"
             d="m 212.35197,93.063187 c 23.0918,-3.733379 20.33084,11.600963 20.33084,11.600963 0,0 -13.25028,9.60516 -20.33084,-11.600963"
             style="fill:#000000;fill-opacity:1;stroke:#000000;stroke-width:0;stroke-linecap:butt;stroke-linejoin:miter;stroke-miterlimit:4;stroke-dasharray:none;stroke-opacity:1" />
        </g>
      </g>
    </g>
    <g
       id="g1345"
       transform="matrix(0.9146469,0,0,0.9146469,-248.22511,185.35324)">
      <g
         id="g1350"
         transform="matrix(1.0950473,0,0,1.0950473,-26.421766,-13.654963)">
        <path
           style="fill:#000000;fill-opacity:1;stroke:#000000;stroke-width:0.23887402px;stroke-linecap:butt;stroke-linejoin:miter;stroke-opacity:1"
           d="m 296.01798,107.88622 c 0,0 -3.83689,0.19223 -5.24667,2.48996 -1.40979,2.29773 -2.57206,3.0894 -5.07862,4.59189 -9.86614,5.914 -8.88648,17.11824 -3.97935,22.21627 3.59838,3.73837 9.12104,6.43841 14.59872,6.35946 5.39195,-0.0777 11.55959,-2.62562 14.84584,-6.42762 6.09218,-7.04828 3.88898,-17.60752 -4.10787,-21.8661 -2.28437,-1.2165 -4.63702,-3.11555 -5.63195,-5.4739 -3.73332,-5.47544 -2.69205,-4.98384 -5.4001,-1.88996 z"
           id="path1295"
           inkscape:connector-curvature="0"
           sodipodi:nodetypes="czssssscc" />
        <path
           sodipodi:nodetypes="csccc"
           inkscape:connector-curvature="0"
           id="path1110-8-0-5-9"
           d="m 287.93535,101.17965 c 0,0 3.82236,6.80522 3.07279,8.69842 -2.4348,6.1496 2.37682,6.80557 3.82817,5.36521 0,0 5.64029,-4.26696 2.37422,-2.15124 -1.17577,-5.95958 3.16087,-7.61583 -9.27518,-11.91239"
           style="fill:#000000;fill-opacity:1;stroke:#000000;stroke-width:0.34273493;stroke-linecap:round;stroke-linejoin:miter;stroke-miterlimit:4;stroke-dasharray:none;stroke-opacity:1" />
        <path
           sodipodi:nodetypes="ccccc"
           inkscape:connector-curvature="0"
           id="path1110-8-0-5-9-2"
           d="m 302.59127,97.201483 c -11.22896,2.481298 -10.70988,12.137747 -10.93247,15.848387 4.78394,-1.3847 11.85978,4.64934 10.87286,0.3178 -0.31664,-1.2764 -1.44463,-3.78825 -1.70834,-5.82988 -0.26372,-2.04163 1.68018,-10.295347 1.76795,-10.336307"
           style="fill:#000000;fill-opacity:1;stroke:#000000;stroke-width:0.27186364;stroke-linecap:round;stroke-linejoin:miter;stroke-miterlimit:4;stroke-dasharray:none;stroke-opacity:1" />
      </g>
    </g>
  </g>
  <g
     inkscape:groupmode="layer"
     id="layer2"
     inkscape:label="Camada 2"
     transform="translate(-15.548634,-192.03931)" />
</svg>
